Simulation
nRows=36
nColumns=15
endheader
time  TH_x TH_y TH_z SC_y  SC_z  SC_x  AC_y  AC_z  AC_x  GH_y  GH_z  GH_yy  EL_x  PS_y
5.362  0.000000  0.000000  0.000000  -26.031782948324274  7.591507879201496  16.983536574051193  58.057616768156336  18.52779596008501  11.59103254355422  -10.77694587869366  66.77135426703737  9.759786862403413  13.565882510464599  120.000000
5.4156200000000005  0.000000  0.000000  0.000000  -26.105979808670217  7.579461572270846  17.63106952895721  58.30404194278313  17.826148595987494  11.007251035365009  -10.603020782932175  67.09790004811772  9.28618762558875  13.622808771156315  120.000000
5.46924  0.000000  0.000000  0.000000  -25.987669753141326  7.534040291487617  17.802030205147293  58.68633813966838  17.07626330117524  10.233633205820407  -10.500763264639833  67.23616133094829  8.902829289929072  13.491042263631485  120.000000
5.52286  0.000000  0.000000  0.000000  -25.676534615195248  7.433822835789478  17.484545534794865  59.18371663633805  16.27353724985131  9.320054297731833  -10.477530575355539  67.12992453588696  8.587612924350253  13.22903243090443  120.000000
5.57648  0.000000  0.000000  0.000000  -25.187786709816432  7.2478584076193915  16.6814995637049  59.760298711064664  15.416805853955612  8.340208815173925  -10.531404669305456  66.72348753382644  8.3097015562397  12.921161155166061  120.000000
5.6301000000000005  0.000000  0.000000  0.000000  -24.555678648750185  6.947531190441568  15.405986522732857  60.36669955556682  14.512190417168904  7.379741700287483  -10.643269754635584  65.97647282350242  8.053504929383848  12.645306469202305  120.000000
5.68372  0.000000  0.000000  0.000000  -23.831020418113663  6.515459749793835  13.678316491598519  60.94320251606813  13.578085963066089  6.526168444557819  -10.771183007264463  64.87505166207917  7.835556557605256  12.448260853484292  120.000000
5.73734  0.000000  0.000000  0.000000  -23.072757910182318  5.949377076706742  11.529444675732558  61.424678487893324  12.648171258765316  5.8606373437195085  -10.853672693341062  63.43132424803247  7.706546735279236  12.33846874011132  120.000000
5.79096  0.000000  0.000000  0.000000  -22.338681795803435  5.263567117302736  9.009603250050874  61.748706308015066  11.770763798211258  5.447630507209376  -10.822236808938529  61.6720585017368  7.737213476590965  12.296687530023595  120.000000
5.8445800000000006  0.000000  0.000000  0.000000  -21.676593208616957  4.492280808760285  6.193847787183255  61.866854605545576  11.00167811835825  5.319537296525733  -10.618221840505415  59.620824499296326  7.998234386205415  12.291826515539222  120.000000
5.8982  0.000000  0.000000  0.000000  -21.114617957838586  3.6836388632194597  3.184683724107097  61.751942837136205  10.391609097039234  5.47001317575076  -10.203119014238247  57.282952876688306  8.542235179161061  12.29458125672231  120.000000
5.95182  0.000000  0.000000  0.000000  -20.65562182467189  2.8939562571859074  0.10568098776241135  61.4024422595519  9.976178106290787  5.8534042019667805  -9.562822903606719  54.64122527673771  9.39368938957439  12.283982069080981  120.000000
6.00544  0.000000  0.000000  0.000000  -20.281001922293434  2.1803055695411566  -2.9088924765235156  60.83999779331033  9.777118010339345  6.394438885724438  -8.708883075303207  51.66454117651031  10.548918290781415  12.248263215902668  120.000000
6.059060000000001  0.000000  0.000000  0.000000  -19.96134943713562  1.593437173174089  -5.726513522251442  60.10381890003764  9.80717062758118  7.005398551258353  -7.672352432436575  48.331101934218324  11.980443329231779  12.184026599393729  120.000000
6.11268  0.000000  0.000000  0.000000  -19.67346066269918  1.174942276626812  -8.22979262725963  59.246408076550246  10.071627642151242  7.603907493907651  -6.489766694436225  44.656518533450196  13.641576242944945  12.098873251849396  120.000000
6.1663  0.000000  0.000000  0.000000  -19.41421569169731  0.9502934291016488  -10.332043647772256  58.329695927934246  10.56209539201812  8.128326617144355  -5.18525346215652  40.71309861528358  15.469775834663073  12.013365474694877  120.000000
6.21992  0.000000  0.000000  0.000000  -19.207332171150625  0.915606726842141  -11.985299177584622  57.41395315904724  11.247560606311948  8.552411829195142  -3.76265267196478  36.62533314478556  17.393363559507737  11.95850932423898  120.000000
6.273540000000001  0.000000  0.000000  0.000000  -19.095751020052194  1.039946546593876  -13.187248465730308  56.55452371052251  12.074139344492233  8.878902450461375  -2.2107222931432102  32.543079539549915  19.34127096964375  11.970561025557949  120.000000
6.32716  0.000000  0.000000  0.000000  -19.113336733517507  1.2803612870581123  -13.97430732739648  55.810694948499616  12.969469072512087  9.108585091613486  -0.5169285233006631  28.605442337716465  21.25304847719795  12.085130412240394  120.000000
6.38078  0.000000  0.000000  0.000000  -19.265904382292863  1.5842185903213915  -14.39257508315366  55.22648303278541  13.860731771840715  9.246298282079598  1.3099422897735178  24.91327654481146  23.092726140588216  12.333095170484029  120.000000
6.4344  0.000000  0.000000  0.000000  -19.52315380658894  1.901935635109933  -14.482449241987355  54.82182819006529  14.695248963777045  9.303967089504026  3.228293435486202  21.522708687376852  24.85046437476281  12.736063802295842  120.000000
6.488020000000001  0.000000  0.000000  0.000000  -19.82745236532278  2.206019820591289  -14.280778561709427  54.60150679962403  15.447948905356178  9.285801081815265  5.17328801879443  18.450947020176503  26.526410871552645  13.30051951184826  120.000000
6.54164  0.000000  0.000000  0.000000  -20.124443812353054  2.4853475458416256  -13.825860124190381  54.54450694016256  16.11913902578159  9.203475069482211  7.073739434394707  15.68658161415013  28.106735122758415  14.006176764250245  120.000000
6.59526  0.000000  0.000000  0.000000  -20.38368924294124  2.734952861207082  -13.157796165671236  54.60426359916221  16.718909183310526  9.079437090728588  8.890125179335255  13.200939545454752  29.526513407302037  14.796798930764998  120.000000
6.64888  0.000000  0.000000  0.000000  -20.607248435583774  2.959384076747141  -12.31862287734534  54.729536844919615  17.25525463901007  8.928757863584432  10.699623535269232  10.960374439247735  30.596100510731056  15.587502742154346  120.000000
6.702500000000001  0.000000  0.000000  0.000000  -20.819567561922977  3.173451403929211  -11.350852429099945  54.880222609295856  17.730371314290398  8.750780216210995  12.77253713274775  8.934064043017834  30.948430963400302  16.28670349788827  120.000000
6.75612  0.000000  0.000000  0.000000  -21.048152001410617  3.390316190798008  -10.291126128748843  55.01973619248749  18.140791163359086  8.542848787795592  15.557341045406147  7.095318954396895  30.08488376178548  16.823742158195106  120.000000
6.80974  0.000000  0.000000  0.000000  -21.31143069177288  3.6181334789107025  -9.16708084677845  55.114970284144356  18.48125413305703  8.311219968997754  19.66572838197678  5.426177058412064  27.409594706460517  17.170486787860856  120.000000
6.86336  0.000000  0.000000  0.000000  -21.60460322367266  3.8619678528049337  -7.9997114494665995  55.15099468997244  18.749011387233097  8.065713581539317  26.045321383064824  3.919195325057065  22.054371616897924  17.34588027837316  120.000000
6.916980000000001  0.000000  0.000000  0.000000  -21.898229599086093  4.119475251180197  -6.807350681868301  55.1408467446995  18.94248023835791  7.821036746593038  37.11465498385554  2.5836694486140166  11.718971369192472  17.403060648140347  120.000000
6.9706  0.000000  0.000000  0.000000  -22.151641905950775  4.381248391350081  -5.605903894718138  55.11837599103969  19.05692046555704  7.593908559741585  61.8171767441126  1.5140503161649952  -12.41815736589395  17.407043800623107  120.000000
7.02422  0.000000  0.000000  0.000000  -22.336120745584545  4.63612355688259  -4.409249929949545  55.11247956670635  19.087932815052696  7.39226781072861  116.41590958021101  1.1814426353606162  -66.52525046473727  17.40807248391668  120.000000
7.07784  0.000000  0.000000  0.000000  -22.449703647754237  4.87779033303906  -3.23096910637982  55.1344343613155  19.03534953806898  7.2142681940151805  155.90408846466448  1.827055791751279  -105.54054216949415  17.428568986294856  120.000000
7.131460000000001  0.000000  0.000000  0.000000  -22.510945163191497  5.104283522209676  -2.0845897855216644  55.182707022014476  18.90376655714427  7.052376070829057  171.25322320117704  2.744400054053678  -120.41423197565825  17.469386638579532  120.000000
7.18508  0.000000  0.000000  0.000000  -22.546073047228777  5.315236627036104  -0.9841243475022686  55.25072680448091  18.70175087149444  6.897195508942027  178.57070352995493  3.6563119585598782  -127.25261369264938  17.52153165630114  120.000000
7.2387  0.000000  0.000000  0.000000  -22.578136880070282  5.509621622222841  0.0553080238168524  55.33290135010563  18.43958592919213  6.740142026454577  -177.2405365461489  4.492467415872992  -130.96498066879954  17.575164738953656  120.000000
